/* XPM */
static char *result[] = {
/* columns rows colors chars-per-pixel */
"32 32 13 1 ",
"  c black",
". c #580135",
"X c #735247",
"o c #9C1C12",
"O c red",
"+ c #DF3518",
"@ c #91773F",
"# c #F69300",
"$ c #FFE400",
"% c #B1A976",
"& c #D7CEA2",
"* c #FFFAAD",
"= c None",
/* pixels */
"=========== ==== = ======= =====",
"========== + =  $ # = === o ====",
"====  === + . $ o..    = . o ===",
"=== &% = +    +oo  %XX      + ==",
"==== X%     $+   &%X  .      + =",
"=====  XX     X%%X   .       o =",
"======   oo++ooX      .       o ",
"======  o$oo.$       ....     . ",
"====== + o .. @ .     .oo.    . ",
"===== ++ + . @ ..   ..o.++o.  . ",
"===== +o. & & @o   ..o++o.o+o . ",
"===== oo..   @o     .oo++o.oo. =",
"===== .. o& &oo ..  ..ooo.o+o. =",
"======  +o +oo .o..  .... o+o.o ",
"====== . +    .ooo..     .+o.+o ",
"======= o ooo.oo...  .  = .ooo. ",
"====     o  ...    .... == ++o. ",
"=== o. .  .  oo.. ...o.. = +o.. ",
"=== ++.+ +o. ..o.. ...o. = o... ",
"=== ++o% oo oo. ....oo..  .... =",
"=== +o.X   +ooo. ....oo. o+.o. =",
"=== .o   ++o+oo.  .$o.+.  o+.  =",
"====    ++o+oo..   .$$+ $# o  ==",
"====== ++ooooo.     $$o$#O    = ",
"===== ++++ooo.      $.$#O#   == ",
"==== +o+oooo.       $$##$ +o =  ",
"==== +ooo.o.      .o$#$$ ++o =  ",
"==== oo....     =$.$$$$ ooo .  =",
"===== o..      ==$$#$$  .. ..  =",
"====== ....   ==**$$$  ......  =",
"===== +o ...  *****$    +o .o ==",
"==== %X %X..  =***$ .   %%  X% ="
};
