/* XPM */
static char *_2d2ce7c7f3c47a7b68224db5a2e69db2mOa39poCCqXWFKA[] = {
/* columns rows colors chars-per-pixel */
"32 32 10 1 ",
"  c gray10",
". c #1E1E1E",
"X c #221111",
"o c #252525",
"O c #2B0E0E",
"+ c #2C2C2C",
"@ c #340A0A",
"# c #343434",
"$ c #3C3C3C",
"% c white",
/* pixels */
"#+++o o.  . $#o  oo++o.o$+   .o+",
"+o+o..$+oo .$++$ .ooo+ $+#+.  o+",
"+o   $#$#+o..+o+o.     o#++o.o.o",
"o .#++$#$#.o.++#o..  . .ooo+ . .",
" .#+#+#+++o+o.++.  o#+oo.o+o ...",
".o+$++$##o+#+.. . o$+#+#+.. .+oo",
".++#$#++oo++.   . $##++$o . #+#+",
"o#$#++$#++$  o.  +#$++#+$+  +#++",
".+#$+##+o+. #+o .o+o+o+$+o.+++oo",
"o#+##+$+oo +#++oo.o+o+o+o o+o.. ",
"++#++#+o+ +$#+$++..o+#+#+  ..#+$",
"+o+oo+o+. .+$o+#+ .+o#++#o. oo$o",
"o+. .. .  +$o+o++  .#+$+o+ .o++#",
"+o .  . .+$o+o+. .  ++#o+o.+#+$+",
"+.   o   +o+#+o$o ..+$++...$+#++",
"o #o+o+. +#o++o+#+o  +#o.#+.o+$+",
"..$++++o..++o+#+$o+. o+.X+$o.o+o",
".$++#+o+. ..+##o++++ . .+XoXO. .",
" #o#+$++o. .o+o+o+o+. . oX@@X. .",
"+++$#+#+o    o++#+o+.  . . .X . ",
"o+#++XXo+.+X X+o+#oo X o+#+. .  ",
"+OOX@OX#X.++o.oo#o+. X++$+oo. . ",
"+#$+$@XO. X$+X  ..  X.o+#oo+   .",
"#++#+#X@  +#+XX.X. X.+o#O+#+o .o",
"+##oo+o+. .+o. XXX.. X@X@OO. .oo",
"+o++.. o .. ..o#+O#o.+X@@@OO+.o+",
"o+oo  ..$+ . o#OXO+++XXOOOo+#o +",
" . . . #+#+. #$O@O$#+O O+.+#$o  ",
" o.  . $+++ .o+O@@O+#+.   $o+o..",
"++#+. .+#$#+. $#@OOOoo . o+oo. #",
"$##++. o+#++ .OOOO#+o+.  . .  $+",
"+$+#o ..o+o.  ..oo+o+o  ..  . +#"
};
