/* XPM */
static char *result[] = {
/* columns rows colors chars-per-pixel */
"32 32 149 2 ",
"   c #070703",
".  c #080703",
"X  c #0C0C06",
"o  c #0D0E09",
"O  c #100F07",
"+  c #0E1007",
"@  c #0F100A",
"#  c #121107",
"$  c #191607",
"%  c #1B1806",
"&  c #12130C",
"*  c #16190E",
"=  c #1A1D0D",
"-  c #171B10",
";  c #1C1D13",
":  c #211D0E",
">  c #201F15",
",  c #1D200E",
"<  c #1E2113",
"1  c #24250D",
"2  c #28250F",
"3  c #25280D",
"4  c #2B2A0E",
"5  c #2F300E",
"6  c #33310F",
"7  c #222314",
"8  c #2A2715",
"9  c #242A16",
"0  c #2B2C13",
"q  c #242718",
"w  c #252B19",
"e  c #2B2E1D",
"r  c #322D13",
"t  c #312F1F",
"y  c #2E3116",
"u  c #2C311D",
"i  c #343415",
"p  c #393714",
"a  c #3D3A15",
"s  c #33321E",
"d  c #3A351D",
"f  c #36391B",
"g  c #3D3A1B",
"h  c #272420",
"j  c #2F2E20",
"k  c #2F2F2E",
"l  c #302F20",
"z  c #302F2D",
"x  c #2F3321",
"c  c #313521",
"v  c #343B25",
"b  c #34312C",
"n  c #383329",
"m  c #373A28",
"M  c #3E3E2D",
"N  c #423C16",
"B  c #483F17",
"V  c #433B1A",
"C  c #403F2E",
"Z  c #3E441C",
"A  c #3A4223",
"S  c #3D422C",
"D  c #454317",
"F  c #484017",
"G  c #45421B",
"H  c #4B461B",
"J  c #444A1E",
"K  c #4A4D1C",
"L  c #50511E",
"P  c #5A541D",
"I  c #424721",
"U  c #484521",
"Y  c #474822",
"T  c #4A4B25",
"R  c #42412D",
"E  c #4C452B",
"W  c #424A29",
"Q  c #494C28",
"!  c #534D24",
"~  c #5A4E27",
"^  c #544929",
"/  c #5D4A2C",
"(  c #515625",
")  c #575826",
"_  c #5C5B26",
"`  c #55552C",
"'  c #565A2D",
"]  c #4E4332",
"[  c #4A443A",
"{  c #4E4B3B",
"}  c #514532",
"|  c #544B3C",
" . c #495335",
".. c #4C5739",
"X. c #555A34",
"o. c #585B32",
"O. c #5D523C",
"+. c #645735",
"@. c #665835",
"#. c #6D5835",
"$. c #65543A",
"%. c #735C33",
"&. c #68622E",
"*. c #7D632E",
"=. c #474542",
"-. c #4B4740",
";. c #5F5C57",
":. c #645F55",
">. c #5D7046",
",. c #77674D",
"<. c #6E6252",
"1. c #6E6E57",
"2. c #BC3B03",
"3. c #C23C03",
"4. c #CB3E03",
"5. c #8C6D37",
"6. c #95743D",
"7. c #9C793A",
"8. c #CF4003",
"9. c #D34103",
"0. c #DC4303",
"q. c #E34504",
"w. c #E84704",
"e. c #D56C07",
"r. c #DC6E07",
"t. c #DE7208",
"y. c #E77709",
"u. c #E87709",
"i. c #EC7A0A",
"p. c #8C6F43",
"a. c #806B48",
"s. c #8A7C4F",
"d. c #837851",
"f. c #7D8450",
"g. c #AD863D",
"h. c #EE9C2C",
"j. c #F7AE27",
"k. c #F3A62B",
"l. c #F6AB2A",
"z. c #F7B227",
"x. c #F7B128",
"c. c #F8B328",
"v. c #EFB936",
"b. c #FED63D",
"n. c #FED93D",
"m. c #928F4B",
"M. c #9B9543",
"N. c #FED342",
"B. c #FEFE4C",
/* pixels */
"; ; ; ; ; & ; ; > O @ @ & & O O O @ > > > & @ @ > > > ; ; > ; ; ",
"1.{ -.M z l @ > O > l s d n d d > # > > O O E C O @ O l C -.-.1.",
"| M C R l l @ O > s E E s.+.^ ^ 2.V $ $ d E d.O.E @ O O l M -.1.",
"S C C l l l > O s s s.#.^ 3.^ 3.V V : / ^ g d s l E O O l R C ] ",
"C C l l l t d O d ^ ^ ^ ~ e.4.4.h.4.r ~ V V d d s s < O < j M R ",
"C C t s n d > O E d ^ V B V B B 4.r.4.B d V g s g d = # ; s j j ",
"s t t s s > d O d V ^ V N N B 4.4.k.t.4.r 1 g g g s 7 + < s e < ",
"t t t s > d : $ V p N N N B N q.i.N.k.4.0 B 2 i 7 g # o < u e ; ",
"> > t > f 7 # # G G a a D N q.i.N.l.i.0.2 1 3 1 9 , + # < < w < ",
"> $ O O # # # # 9 a 4 D 3 q.i.q.l.i.q.P $ # 3 1 3 $ + # # < o < ",
"O R C E # # # # $ 1 5 3 4 i.i.z.z.i.q.0.N $ # $ # # # # + + # ; ",
"> R t : f.' ' % # $ # $ 6 w.w.z.z.q.i.q.H 4 4 4 m.` Q W f + A + ",
"s t u < o.A o.( ( _ K % 3 i.i.z.c.c.i.u.1 3 M.&.T Q y y s + A < ",
"t t s < A Z A Z ) K L 6 6 j.i.z.n.c.i.l.3 4 _ ! T W f w < , w w ",
"t ; s ; A f f y Z J D D 3 u.z.b.B.b.l.y.2 p ! ( J f y , < < u w ",
"t s 7 = s w f 0 p i i Z %.q.*.B.5.b.*.0./ a G Z f f f < # w u u ",
"s ; e , u , , , O 4 p 4 / %.5.7.g.7.5.%./ r U d 0 f 9 + < f w u ",
"x u < ; u = , , , O 0 = : %.v.p.b.5.v.#.% 8 8 r 0 u < , + 9 u w ",
"e ; - < u w * * = X . 2 . / r.p.v.p.4.$.: : > 7 * # , + 9 u A w ",
"> ; < < = 9 = * # X = = $ } $.a.e.a.$.} . . O . o * X = - w u w ",
"; ; ; < - = = < 7 S 9 , & & } $.,.O.C > > 8 q j u + < @ < < - - ",
"> @ O O @ + X u f 9 , # [ > b | :.| n > C > > q u + + @ + + - < ",
"e M 1.{ m m v < u < @ @ q & b b | b h & h * > 8 w A @ >.>.S S u ",
"l | { M S v < < w = & & o + b -.:.[ b @ * * : 8 9 9 x S x A S u ",
"e R j j e q q e < - * # @ X b k =.b k & @ & - - < < w w u A u u ",
"j j j { [ e q e ; * & @ @ @ b =.;.=.k   ; & - ; 9 w - u u w x u ",
"j j { { M m q e ; ; - & @ & @ k =.b   X - * - ; < - - u w w u u ",
"e j M M j j q x < ; - & & @ @ k k k   X & * ; < w & - - u < u u ",
"; l l C e - - x > ; ; @ & - o o     @ o ; ; ; 7 h - ; < ; u - k ",
"l ; j C e ; o q 7 7 ; @ ; @ . .   X @ @ ; ; > q - ; ; ; k < x < ",
"; ; ; ; ; ; o O o - & & & o . o . . X o & - - - ; ; @ ; ; ; - < ",
"; ; ; ; 7 ; ; o o O ; * - - - - o o o - - - - ; ; @ @ ; ; < - < "
};
